<?xml version="1.0" encoding="UTF-8" standalone="no"?>
<!-- Created with Inkscape (http://www.inkscape.org/) -->

<svg
   version="1.1"
   id="svg1"
   width="306.85333"
   height="230.38667"
   viewBox="0 0 306.85333 230.38667"
   sodipodi:docname="FIRST_VerticalCMYK_reverse.eps"
   xmlns:inkscape="http://www.inkscape.org/namespaces/inkscape"
   xmlns:sodipodi="http://sodipodi.sourceforge.net/DTD/sodipodi-0.dtd"
   xmlns="http://www.w3.org/2000/svg"
   xmlns:svg="http://www.w3.org/2000/svg">
  <defs
     id="defs1" />
  <sodipodi:namedview
     id="namedview1"
     pagecolor="#ffffff"
     bordercolor="#000000"
     borderopacity="0.25"
     inkscape:showpageshadow="2"
     inkscape:pageopacity="0.0"
     inkscape:pagecheckerboard="0"
     inkscape:deskcolor="#d1d1d1">
    <inkscape:page
       x="0"
       y="0"
       inkscape:label="1"
       id="page1"
       width="306.85333"
       height="230.38667"
       margin="0"
       bleed="0" />
  </sodipodi:namedview>
  <g
     id="g1"
     inkscape:groupmode="layer"
     inkscape:label="1">
    <g
       id="group-R5">
      <path
         id="path2"
         d="m 1116.99,1390.66 c 31.22,0 61.52,-2.86 90.44,-8.14 l 68.85,71.73 c -48.15,16.66 -102.19,26.02 -159.29,26.02 -97.11,0 -185.287,-27.09 -250.646,-71.16 l 59.969,-56.84 c 55.468,24.3 120.747,38.39 190.677,38.39"
         style="fill:#959596;fill-opacity:1;fill-rule:nonzero;stroke:none"
         transform="matrix(0.13333333,0,0,-0.13333333,0,230.38667)" />
      <path
         id="path3"
         d="m 1116.99,1480.27 c 57.1,0 111.14,-9.36 159.29,-26.02 l 74.82,77.92 c -69.82,27.52 -149.47,43.16 -234.11,43.16 -126.166,0 -241.302,-34.72 -329.146,-91.84 l 78.5,-74.38 c 65.359,44.07 153.536,71.16 250.646,71.16"
         style="fill:#ffffff;fill-opacity:1;fill-rule:nonzero;stroke:none"
         transform="matrix(0.13333333,0,0,-0.13333333,0,230.38667)" />
      <path
         id="path4"
         d="m 757.633,1175.42 c 6.289,25.71 17.93,50.12 33.961,72.65 l -30.133,30.5 c -6.027,-18.75 -9.316,-38.28 -9.316,-58.36 0,-15.28 1.937,-30.23 5.488,-44.79"
         style="fill:#959596;fill-opacity:1;fill-rule:nonzero;stroke:none"
         transform="matrix(0.13333333,0,0,-0.13333333,0,230.38667)" />
      <path
         id="path5"
         d="m 534.871,1006.84 -12.652,-65.629 125.933,54.219 c -7.949,16.73 -9.5,38.51 -14.113,56.25 l -99.168,-44.84"
         style="fill:#959596;fill-opacity:1;fill-rule:nonzero;stroke:none"
         transform="matrix(0.13333333,0,0,-0.13333333,0,230.38667)" />
      <path
         id="path6"
         d="m 446.25,1720.43 -182.281,-998.11 86.207,-7.039 180.476,1012.649 -84.402,-7.5"
         style="fill:#959596;fill-opacity:1;fill-rule:nonzero;stroke:none"
         transform="matrix(0.13333333,0,0,-0.13333333,0,230.38667)" />
      <path
         id="path7"
         d="m 1059.16,1146.07 v 80.72 l -132.379,125.48 -59.968,56.84 -78.5,74.38 L 530.371,1727.94 349.809,715.281 731.852,883.242 c -38.051,33.606 -65.02,69.414 -85.028,111.613 l -124.375,-53.339 12.485,65.274 80.578,420 6.75,35.25 66.523,-67.01 85.574,-86.21 36.778,-37.05 151.125,-130.16 -146.727,-67.2 c 38.121,-38.09 83.231,-71.6 144.078,-90.543 l 183.017,82.183 -83.47,80.02"
         style="fill:#ed1c24;fill-opacity:1;fill-rule:nonzero;stroke:none"
         transform="matrix(0.13333333,0,0,-0.13333333,0,230.38667)" />
      <path
         id="path8"
         d="m 1476.32,1175.42 c 3.55,14.56 5.53,29.51 5.53,44.79 0,45.09 -16.51,87.63 -44.85,124.59 l -43.44,-45 c 41.68,-34.71 71.35,-77.48 82.76,-124.38"
         style="fill:#959596;fill-opacity:1;fill-rule:nonzero;stroke:none"
         transform="matrix(0.13333333,0,0,-0.13333333,0,230.38667)" />
      <path
         id="path9"
         d="m 1558,748.195 -102.97,98.953 c -16.45,-11.257 -34.08,-21.679 -52.5,-31.25 L 1558,666.621 2037.43,1165.97 2036.9,1246.84 1558,748.195"
         style="fill:#959596;fill-opacity:1;fill-rule:nonzero;stroke:none"
         transform="matrix(0.13333333,0,0,-0.13333333,0,230.38667)" />
      <path
         id="path10"
         d="m 1208.64,1083.59 -84.78,81.45 -64.92,61.95 -0.24,-80.92 91.25,-87.64 87.23,-83.762 c 22.13,5.52 43.34,12.48 63.3,20.762 l -91.84,88.16"
         style="fill:#959596;fill-opacity:1;fill-rule:nonzero;stroke:none"
         transform="matrix(0.13333333,0,0,-0.13333333,0,230.38667)" />
      <path
         id="path11"
         d="m 1542,1535.19 -68.24,-71.06 -75.31,-78.45 -51.29,-53.43 -97.27,-101.28 40.74,-39.11 103.48,107.75 43.28,45.06 79.24,82.53 25.37,26.43 263.65,-252.73 40.79,42.34 -304.44,291.95"
         style="fill:#959596;fill-opacity:1;fill-rule:nonzero;stroke:none"
         transform="matrix(0.13333333,0,0,-0.13333333,0,230.38667)" />
      <path
         id="path12"
         d="m 1516.63,1427.2 -79.24,-82.53 c 28.34,-36.96 44.46,-79.37 44.46,-124.46 0,-15.28 -1.98,-30.23 -5.53,-44.79 -9.26,-37.95 -30.04,-73.08 -59.69,-103.47 -30.39,-31.14 -70.04,-57.32 -116.15,-76.52 -19.96,-8.282 -41.17,-15.242 -63.3,-20.762 -37.64,-9.324 -78.07,-14.492 -120.19,-14.492 -51.88,0 -101.16,7.726 -145.822,21.648 -60.852,18.956 -113.02,49.366 -151.148,87.466 -13.922,13.87 -25.922,28.78 -35.84,44.53 -12.211,19.38 -21.258,40.02 -26.547,61.6 -3.551,14.56 -5.488,29.51 -5.488,44.79 0,20.08 3.289,39.61 9.316,58.36 l -91.066,92.15 c -33.321,-49.44 -52.149,-105.15 -52.149,-164.15 0,-15.19 1.399,-30.13 3.817,-44.82 5.843,-35.66 18.613,-69.7 37.23,-101.46 9.316,-15.97 20.16,-31.33 32.34,-46.04 32.023,-38.645 73.347,-72.551 121.719,-100.09 84.074,-47.832 189.318,-76.328 303.638,-76.328 79.97,0 155.5,13.918 222.47,38.645 20.31,7.5 39.83,15.996 58.44,25.437 43.2,21.828 81.48,48.535 113.46,79.074 53.65,51.222 89.49,113.152 100.56,180.762 2.43,14.69 3.79,29.63 3.79,44.82 0,82.74 -36.83,159.11 -99.08,220.63"
         style="fill:#ffffff;fill-opacity:1;fill-rule:nonzero;stroke:none"
         transform="matrix(0.13333333,0,0,-0.13333333,0,230.38667)" />
      <path
         id="path13"
         d="m 1208.21,1082.98 91.51,-87.863 c 46.09,19.203 86.07,45.083 116.48,76.213 l -125.45,120.47 -40.74,39.11 96.72,100.72 51.29,53.43 75.29,78.46 68.26,71.05 303.71,-291.56 -40.78,-42.46 -248.81,-259.073 c -26.19,-35.918 -60.17,-67.778 -100.35,-95.266 l 102.21,-98.633 479.45,499.312 -499.33,479.42 -187,-194.76 -74.84,-77.92 -68.85,-71.72 -148.04,-154.92 149.27,-144.01"
         style="fill:#1c63b7;fill-opacity:1;fill-rule:nonzero;stroke:none"
         transform="matrix(0.13333333,0,0,-0.13333333,0,230.38667)" />
      <path
         id="path14"
         d="m 786.246,1111.34 c 0,0 2.367,-3.94 2.66,-4.39 7.321,-11.64 17.383,-22.3 26.907,-32.93 l 149.164,68.91 -342.758,319.22 -9.375,-49.38 268.949,-266.23 -95.547,-35.2"
         style="fill:#959596;fill-opacity:1;fill-rule:nonzero;stroke:none"
         transform="matrix(0.13333333,0,0,-0.13333333,0,230.38667)" />
      <path
         id="path15"
         d="m 1615.71,1206.57 c 0,-15.19 -1.36,-30.13 -3.79,-44.82 -11.07,-67.61 -46.91,-129.54 -100.56,-180.762 -31.98,-30.539 -70.26,-57.246 -113.46,-79.074 -18.61,-9.441 -38.13,-17.937 -58.44,-25.437 -66.97,-24.727 -142.5,-38.645 -222.47,-38.645 -114.32,0 -219.564,28.496 -303.638,76.328 -48.372,27.539 -89.696,61.445 -121.719,100.09 -12.18,14.71 -23.024,30.07 -32.34,46.04 -18.617,31.76 -31.387,65.8 -37.23,101.46 -2.418,14.69 -3.817,29.63 -3.817,44.82 0,4.77 0.332,9.5 0.594,14.19 -0.051,0.27 -0.133,0.61 -0.152,0.85 -2.422,-14.7 -0.442,-89.5 -0.442,-104.68 0,-24.05 3.215,-47.54 9.176,-70.32 4.613,-17.74 10.984,-35.03 18.933,-51.755 20.008,-42.199 50.071,-80.91 88.125,-114.511 91.52,-80.742 228.883,-132.149 382.51,-132.149 106.61,0 205.28,24.805 286.36,66.922 18.42,9.571 35.94,20.012 52.38,31.27 40.18,27.492 74.22,59.785 100.41,95.703 37.99,51.992 59.57,111.55 59.57,174.84 0,13.36 1.15,76.62 -0.13,101.73 -0.22,3.45 0.13,-7.73 0.13,-12.09"
         style="fill:#959596;fill-opacity:1;fill-rule:nonzero;stroke:none"
         transform="matrix(0.13333333,0,0,-0.13333333,0,230.38667)" />
      <path
         id="path16"
         d="m 133.559,588.039 h 396.91 L 493.094,435.199 H 302.855 L 284.047,354.891 H 482.5 L 447.949,213.281 H 252.066 L 205.039,12.0898 H 0 L 133.559,588.039"
         style="fill:#ffffff;fill-opacity:1;fill-rule:nonzero;stroke:none"
         transform="matrix(0.13333333,0,0,-0.13333333,0,230.38667)" />
      <path
         id="path17"
         d="M 584.43,588.039 H 789.469 L 655.906,12.0898 H 450.867 L 584.43,588.039"
         style="fill:#ffffff;fill-opacity:1;fill-rule:nonzero;stroke:none"
         transform="matrix(0.13333333,0,0,-0.13333333,0,230.38667)" />
      <path
         id="path18"
         d="m 994.535,313.441 c 65.845,0 111.925,38.868 111.925,94.118 0,29.363 -21.63,44.043 -63.96,44.043 -12.22,0 -18.8,-0.864 -31.97,-3.454 L 979.488,315.18 c 6.586,-0.871 7.528,-1.739 15.047,-1.739 z m -151.426,271.141 13.168,1.727 c 65.836,7.773 147.673,12.953 192.813,12.953 75.24,0 133.56,-8.633 177.77,-26.762 56.43,-23.32 90.29,-74.27 90.29,-135.578 0,-52.66 -17.87,-102.75 -51.74,-141.613 -29.16,-33.668 -55.48,-50.079 -110.04,-66.477 l -13.17,-4.32 c 5.65,-4.321 7.53,-6.051 10.35,-8.641 15.99,-18.141 63.96,-111.402 104.41,-203.7812 H 1031.22 C 1002.06,94.1211 993.598,115.699 955.035,208.969 L 909.887,12.0898 H 710.492 L 843.109,584.582"
         style="fill:#ffffff;fill-opacity:1;fill-rule:nonzero;stroke:none"
         transform="matrix(0.13333333,0,0,-0.13333333,0,230.38667)" />
      <path
         id="path19"
         d="m 1803.9,588.039 h 497.5 l -34.76,-166.73 H 2118.99 L 2021.17,12.0898 h -205.04 l 97.82,409.2192 H 1753.9 l 50,166.73"
         style="fill:#ffffff;fill-opacity:1;fill-rule:nonzero;stroke:none"
         transform="matrix(0.13333333,0,0,-0.13333333,0,230.38667)" />
      <path
         id="path20"
         d="m 2115.78,66.6484 c 4.44,0 6.96,2.1329 6.96,6.1914 0,3.8711 -2.33,6 -6.77,6 -0.97,0 -1.16,0 -2.13,-0.1992 v -11.789 c 0.77,-0.2032 1.16,-0.2032 1.94,-0.2032 z m -17.98,23.9805 c 2.52,0.1914 2.9,0.3828 7.93,0.7695 5.02,0.3907 7.15,0.5821 9.27,0.5821 16.44,0 24.55,-6.3789 24.55,-18.5586 0,-7.3516 -3.08,-11.793 -9.66,-14.3125 l -0.77,-0.1875 c 0.57,-0.3906 0.77,-0.5821 0.96,-0.961 1.74,-1.5507 7.54,-10.25 12.38,-18.1796 h -18.75 c -3.87,7.1484 -5.03,9.0898 -9.87,17.1992 V 39.7813 h -16.04 z m 19.33,-69.4101 c 24.36,0 43.89,19.5312 43.89,43.6914 0,24.3593 -19.53,43.8908 -43.89,43.8908 -24.17,0 -43.69,-19.5315 -43.69,-43.6916 0,-24.5508 19.34,-43.8906 43.69,-43.8906 z m 0,93.7692 c 27.64,0 50.07,-22.2497 50.07,-49.8786 0,-27.8399 -22.23,-50.0781 -50.07,-50.0781 -28.03,0 -49.88,21.8593 -49.88,50.0781 0,27.832 22.04,49.8786 49.88,49.8786"
         style="fill:#ffffff;fill-opacity:1;fill-rule:nonzero;stroke:none"
         transform="matrix(0.13333333,0,0,-0.13333333,0,230.38667)" />
      <path
         id="path21"
         d="M 1277.13,26.7305 C 1334.78,9.60156 1397.82,0 1456.71,0 c 79.95,0 141.09,18.1289 193.75,56.1211 58.31,41.4609 95.94,105.3479 95.94,163.1989 0,38.86 -16.92,74.258 -47.02,99.309 -23.52,18.992 -47.97,33.68 -97.82,56.992 l -40.44,18.988 c -13.18,6.911 -19.76,13.821 -19.76,21.59 0,20.723 26.34,36.262 62.08,36.262 26.74,0 58.61,-7.77 119.5,-27.68 l 42.03,155.899 c -45.54,12.379 -89.92,18.582 -134.26,18.582 -167.41,0 -296.27,-91.532 -296.27,-209.832 0,-62.16 41.38,-106.211 144.84,-154.571 48.91,-22.437 57.38,-28.488 57.38,-44.027 0,-23.312 -25.4,-38 -66.78,-38 -36.68,0 -83.7,11.227 -147.67,34.539 l -0.08,-0.019 -45,-160.6215"
         style="fill:#ffffff;fill-opacity:1;fill-rule:nonzero;stroke:none"
         transform="matrix(0.13333333,0,0,-0.13333333,0,230.38667)" />
    </g>
  </g>
</svg>
